<?xml version="1.0" encoding="UTF-8"?>
<svg id="Layer_2" data-name="Layer 2" xmlns="http://www.w3.org/2000/svg" viewBox="0 0 598.18 217.8">
  <g id="Layer_3" data-name="Layer 3">
    <g>
      <g>
        <path d="M193.26,159.1C63.66,273.11-63.76,124.65,35.38,1.46c1.46-1.82,4.19-1.95,5.84-.31l31.11,31.11c1.38,1.38,1.52,3.56.37,5.13-47.16,64.15,17.44,138.67,84.39,84.56,1.56-1.26,3.81-1.12,5.23.29l31.13,31.13c1.6,1.6,1.52,4.23-.18,5.72Z"/>
        <path d="M318.7,8.05c-11.63,43.39-43.36,161.85-55.42,206.84-.78,2.92-4.43,3.9-6.57,1.76l-35.78-35.78c-.99-.99-1.38-2.44-1.02-3.79l25.71-95.94c.78-2.92-1.89-5.59-4.81-4.81-26.82,7.18-71.58,19.19-95.94,25.71-1.36.36-2.8-.02-3.79-1.02l-35.78-35.78c-2.14-2.14-1.16-5.79,1.76-6.57C170.71,41.61,250.53,20.22,313.89,3.24c2.92-.78,5.59,1.89,4.81,4.81Z"/>
      </g>
      <g>
        <g>
          <path d="M389.33,59.09v-5.04c0-4.66-1.56-6.98-4.68-6.98-1.44,0-2.57.55-3.38,1.66-.82,1.1-1.22,2.69-1.22,4.75,0,.62.06,1.3.18,2.02.12.72.42,1.49.9,2.3.38.72.96,1.57,1.73,2.56.77.98,1.73,2.03,2.88,3.13.58.62,1.22,1.27,1.94,1.94.67.72,1.44,1.46,2.3,2.23,2.59,2.35,4.98,4.66,7.16,6.91,2.18,2.26,3.97,4.25,5.36,5.98,1.39,1.82,2.5,3.58,3.31,5.26.82,1.68,1.42,3.41,1.8,5.18.19.91.32,1.85.4,2.81.07.96.11,1.97.11,3.02,0,2.88-.31,5.53-.94,7.96-.62,2.42-1.58,4.6-2.88,6.52-1.2,1.82-2.77,3.38-4.72,4.68-1.94,1.3-4.07,2.23-6.37,2.81-2.54.67-5.28,1.01-8.21,1.01-5.9,0-10.7-1.27-14.4-3.82-3.65-2.5-6.07-6.22-7.27-11.16-.62-2.4-.94-5.16-.94-8.28v-7.56h15.84v7.63c0,2.78.58,4.94,1.73,6.48,1.05,1.54,2.69,2.3,4.9,2.3.77,0,1.51-.11,2.23-.32.72-.22,1.32-.56,1.8-1.04.43-.43.84-.97,1.22-1.62.38-.65.67-1.45.86-2.41.05-.43.1-.9.14-1.4.05-.5.07-1.02.07-1.55,0-1.01-.07-1.88-.22-2.63-.14-.74-.43-1.55-.86-2.41-.48-.86-1.14-1.75-1.98-2.66-.84-.91-1.81-1.92-2.92-3.02-.62-.58-1.31-1.2-2.05-1.87-.74-.67-1.55-1.39-2.41-2.16-2.69-2.4-5.03-4.6-7.02-6.59-1.99-1.99-3.68-3.92-5.08-5.8-1.39-1.82-2.48-3.59-3.28-5.29-.79-1.7-1.38-3.44-1.76-5.22-.19-.86-.32-1.78-.4-2.74-.07-.96-.11-1.94-.11-2.95,0-2.64.28-5.1.83-7.38.55-2.28,1.43-4.28,2.63-6.01,2.35-3.36,5.76-5.62,10.22-6.77,2.21-.58,4.73-.86,7.56-.86,5.38,0,9.79,1.08,13.25,3.24,1.15.72,2.38,1.85,3.67,3.38,1.3,1.54,2.3,3.62,3.02,6.26.58,2.16.86,4.56.86,7.2v6.34h-15.84Z"/>
          <path d="M423.45,119.79c-1.06,0-2.12-.17-3.2-.5-1.08-.34-2-.82-2.77-1.44-.86-.62-1.6-1.34-2.2-2.16-.6-.82-1.07-1.75-1.4-2.81-.38-1.06-.58-2.11-.58-3.17,0-1.2.19-2.29.58-3.28.38-.98.86-1.88,1.44-2.7.62-.91,1.34-1.64,2.16-2.2.82-.55,1.75-1.02,2.81-1.4,1.06-.34,2.11-.5,3.17-.5s2.13.18,3.24.54c1.1.36,2.02.8,2.74,1.33.77.62,1.44,1.32,2.02,2.09.58.77,1.08,1.73,1.51,2.88.33,1.1.5,2.18.5,3.24,0,.96-.17,2.02-.5,3.17-.34,1.15-.79,2.09-1.37,2.81-.62.82-1.36,1.55-2.2,2.2-.84.65-1.76,1.12-2.77,1.4-.48.14-.98.26-1.51.36-.53.1-1.08.14-1.66.14Z"/>
          <path d="M446.12,119.07V49.23h-13.32v-15.84h43.56v15.84h-13.32v69.84h-16.92Z"/>
          <path d="M477.84,119.07V33.39h16.92v85.68h-16.92Z"/>
          <path d="M540.76,119.07h-36V33.39h35.64v15.84h-18.72v16.34h17.28v15.84h-17.28v21.82h19.08v15.84Z"/>
          <path d="M594.58,55.71c0,4.27-.89,7.92-2.66,10.94-.82,1.44-1.81,2.71-2.99,3.82-1.18,1.1-2.63,2.04-4.36,2.81-1.63.67-3.38,1.1-5.26,1.3v1.15c1.73,0,3.48.55,5.26,1.66,1.68,1.1,3,2.57,3.96,4.39.24.48.44.96.61,1.44.17.48.32.96.47,1.44l8.57,34.42h-16.92l-10.01-36.22h-5.47v36.22h-16.92V33.39h25.2c2.3,0,4.52.35,6.66,1.04,2.13.7,4.07,1.72,5.8,3.06,1.73,1.39,3.18,2.98,4.36,4.75,1.18,1.78,2.1,3.82,2.77,6.12.62,2.35.94,4.8.94,7.34ZM565.78,67.01h3.96c.91,0,1.79-.12,2.63-.36.84-.24,1.62-.62,2.34-1.15,1.25-1.01,2.14-2.45,2.66-4.32.19-.82.29-1.82.29-3.02,0-2.74-.7-4.91-2.09-6.52-1.39-1.61-3.34-2.41-5.83-2.41h-3.96v17.78Z"/>
        </g>
        <g>
          <path d="M370.86,163.42c0,1.46.19,2.88.56,4.25.37,1.37.95,2.66,1.75,3.89.7,1.08,1.57,2.03,2.61,2.84,1.04.82,2.19,1.42,3.44,1.8,1.3.43,2.65.65,4.07.65,2.33,0,4.38-.54,6.16-1.62,1.75-1.08,3.1-2.57,4.03-4.46.22-.46.41-.94.58-1.46.17-.52.31-1.05.43-1.6h8.64c-.19,2.09-.67,3.98-1.42,5.69-.76,1.7-1.72,3.26-2.9,4.68-2.47,2.98-5.62,5.04-9.43,6.19-1.92.58-3.92.86-6.01.86s-4.19-.32-6.32-.97-4.18-1.72-6.17-3.2c-1.75-1.3-3.26-2.87-4.54-4.73-1.27-1.86-2.23-3.85-2.88-5.96-.34-1.08-.59-2.2-.77-3.35-.18-1.15-.27-2.34-.27-3.56,0-2.5.35-4.83,1.06-7,.71-2.17,1.67-4.15,2.9-5.92,1.37-1.94,2.96-3.57,4.79-4.88,1.82-1.31,3.65-2.27,5.47-2.9,1.06-.34,2.15-.6,3.28-.79,1.13-.19,2.28-.29,3.46-.29,4.13,0,7.87,1.09,11.23,3.28,1.61,1.06,3.02,2.32,4.25,3.8,1.22,1.48,2.2,3.05,2.92,4.73.72,1.73,1.18,3.6,1.37,5.62h-8.64c-.19-1.08-.53-2.11-1.03-3.08-.49-.97-1.06-1.82-1.71-2.54-.67-.72-1.44-1.35-2.3-1.89-.86-.54-1.81-.95-2.84-1.24-1.08-.26-2.18-.4-3.31-.4-1.54,0-2.94.23-4.21.7-1.27.47-2.36,1.05-3.28,1.75-2.09,1.66-3.53,3.86-4.32,6.62-.22.7-.37,1.42-.47,2.18-.1.76-.14,1.53-.14,2.32Z"/>
          <path d="M433.57,153.09c0,2.14-.44,3.96-1.33,5.47-.41.72-.91,1.36-1.49,1.91-.59.55-1.31,1.02-2.18,1.4-.82.34-1.69.55-2.63.65v.58c.86,0,1.74.28,2.63.83.84.55,1.5,1.28,1.98,2.2.12.24.22.48.31.72.08.24.16.48.23.72l4.28,17.21h-8.46l-5-18.11h-2.74v18.11h-8.46v-42.84h12.6c1.15,0,2.26.17,3.33.52,1.07.35,2.03.86,2.9,1.53.86.7,1.59,1.49,2.18,2.38.59.89,1.05,1.91,1.39,3.06.31,1.18.47,2.4.47,3.67ZM419.17,158.74h1.98c.46,0,.89-.06,1.31-.18.42-.12.81-.31,1.17-.58.62-.5,1.07-1.22,1.33-2.16.1-.41.14-.91.14-1.51,0-1.37-.35-2.45-1.04-3.26-.7-.8-1.67-1.21-2.92-1.21h-1.98v8.89Z"/>
          <path d="M460.97,184.77h-18v-42.84h17.82v7.92h-9.36v8.17h8.64v7.92h-8.64v10.91h9.54v7.92Z"/>
          <path d="M468.57,184.77l6.7-42.84h12.1l6.7,42.84h-8.46l-1.26-9.83h-6.05l-1.26,9.83h-8.46ZM479.3,167.02h4.03l-1.44-13.43c-.05-.55-.08-1.05-.11-1.49-.02-.44-.05-.92-.07-1.44-.02-.52-.04-1.15-.04-1.89h-.72v1.55c-.02.19-.04.37-.04.54,0,.24-.01.49-.04.74-.02.25-.04.5-.04.74,0,.48-.04.9-.11,1.26l-1.44,13.43Z"/>
          <path d="M508.32,184.77v-34.92h-6.66v-7.92h21.78v7.92h-6.66v34.92h-8.46Z"/>
          <path d="M531.04,184.77v-42.84h8.46v42.84h-8.46Z"/>
          <path d="M555.55,141.93l3.38,27.61c.05.26.1.62.14,1.08.05.46.09.93.13,1.42.04.49.07.92.09,1.28.05.67.08,1.36.11,2.05.02.7.05,1.38.07,2.05v1.94h.72c0-.55,0-1.02.02-1.4.01-.38.02-.77.04-1.15.01-.38.03-.86.05-1.44,0-.62.02-1.3.07-2.02.05-.72.11-1.39.18-2.02.02-.31.05-.62.07-.94.02-.29.06-.58.11-.86l3.38-27.61h8.46l-6.7,42.84h-12.1l-6.7-42.84h8.46Z"/>
          <path d="M598.18,184.77h-18v-42.84h17.82v7.92h-9.36v8.17h8.64v7.92h-8.64v10.91h9.54v7.92Z"/>
        </g>
      </g>
    </g>
  </g>
</svg>