<?xml version="1.0" encoding="UTF-8"?>
<svg id="Layer_2" data-name="Layer 2" xmlns="http://www.w3.org/2000/svg" viewBox="0 0 283.84 193.9">
  <defs>
    <style>
      .cls-1 {
        fill: #ffc300;
      }
    </style>
  </defs>
  <g id="Layer_3" data-name="Layer 3">
    <g>
      <path class="cls-1" d="M172.05,141.64C56.67,243.14-56.76,110.97,31.5,1.3c1.3-1.62,3.73-1.74,5.19-.27l27.7,27.7c1.23,1.23,1.36,3.17.33,4.57-41.99,57.11,15.53,123.45,75.13,75.28,1.38-1.12,3.4-1,4.65.26l27.71,27.71c1.43,1.43,1.36,3.76-.16,5.1Z"/>
      <path class="cls-1" d="M283.72,7.16c-10.35,38.62-38.6,144.08-49.34,184.14-.7,2.6-3.95,3.47-5.85,1.57l-31.85-31.85c-.88-.88-1.23-2.17-.91-3.38l22.89-85.41c.7-2.6-1.68-4.98-4.28-4.28-23.88,6.39-63.73,17.08-85.41,22.89-1.21.32-2.49-.02-3.38-.91l-31.85-31.85c-1.9-1.9-1.04-5.15,1.57-5.85,56.67-15.18,127.73-34.22,184.13-49.34,2.6-.7,4.98,1.68,4.28,4.28Z"/>
    </g>
  </g>
</svg>