<?xml version="1.0" encoding="UTF-8"?>
<svg id="Layer_2" data-name="Layer 2" xmlns="http://www.w3.org/2000/svg" viewBox="0 0 212.32 259.44">
  <g id="Layer_3" data-name="Layer 3">
    <g>
      <g>
        <path d="M128.7,105.95C42.39,181.87-42.46,83.01,23.56.97c.97-1.21,2.79-1.3,3.89-.2l20.72,20.72c.92.92,1.02,2.37.24,3.42-31.41,42.72,11.61,92.34,56.2,56.31,1.04-.84,2.54-.75,3.48.19l20.73,20.73c1.07,1.07,1.02,2.82-.12,3.81Z"/>
        <path d="M212.23,5.36c-7.74,28.89-28.88,107.78-36.9,137.74-.52,1.95-2.95,2.6-4.38,1.17l-23.83-23.83c-.66-.66-.92-1.62-.68-2.53l17.12-63.89c.52-1.95-1.26-3.73-3.2-3.2-17.86,4.78-47.67,12.78-63.89,17.12-.9.24-1.87-.02-2.53-.68l-23.83-23.83c-1.42-1.42-.77-3.86,1.17-4.38C113.68,27.71,166.83,13.46,209.03,2.16c1.95-.52,3.73,1.26,3.2,3.2Z"/>
      </g>
      <g>
        <path d="M41.22,191.26v-3.37c0-3.12-1.04-4.68-3.13-4.68-.96,0-1.72.37-2.27,1.11-.55.74-.82,1.8-.82,3.18,0,.42.04.87.12,1.35.08.48.28,1,.6,1.54.26.48.64,1.05,1.16,1.71.51.66,1.16,1.36,1.93,2.1.39.42.82.85,1.3,1.3.45.48.96.98,1.54,1.49,1.74,1.58,3.33,3.12,4.8,4.63,1.46,1.51,2.66,2.84,3.59,4,.93,1.22,1.67,2.39,2.22,3.52.55,1.13.95,2.28,1.21,3.47.13.61.22,1.24.27,1.88.05.64.07,1.32.07,2.02,0,1.93-.21,3.7-.63,5.33-.42,1.62-1.06,3.08-1.93,4.36-.8,1.22-1.86,2.27-3.16,3.13-1.3.87-2.72,1.49-4.27,1.88-1.7.45-3.54.67-5.5.67-3.95,0-7.17-.85-9.64-2.56-2.44-1.67-4.07-4.16-4.87-7.47-.42-1.61-.63-3.45-.63-5.54v-5.06h10.61v5.11c0,1.86.39,3.31,1.16,4.34.71,1.03,1.8,1.54,3.28,1.54.51,0,1.01-.07,1.49-.22.48-.14.88-.38,1.21-.7.29-.29.56-.65.82-1.08.26-.43.45-.97.58-1.62.03-.29.06-.6.1-.94.03-.34.05-.68.05-1.04,0-.67-.05-1.26-.14-1.76-.1-.5-.29-1.04-.58-1.62-.32-.58-.76-1.17-1.33-1.78-.56-.61-1.21-1.29-1.95-2.02-.42-.39-.88-.8-1.37-1.25-.5-.45-1.04-.93-1.61-1.45-1.8-1.61-3.37-3.08-4.7-4.41-1.33-1.33-2.47-2.63-3.4-3.88-.93-1.22-1.66-2.4-2.19-3.54-.53-1.14-.92-2.31-1.18-3.5-.13-.58-.22-1.19-.27-1.83-.05-.64-.07-1.3-.07-1.98,0-1.77.18-3.41.55-4.94.37-1.53.96-2.87,1.76-4.03,1.57-2.25,3.86-3.76,6.85-4.53,1.48-.39,3.17-.58,5.06-.58,3.6,0,6.56.72,8.87,2.17.77.48,1.59,1.24,2.46,2.27.87,1.03,1.54,2.43,2.03,4.19.39,1.45.58,3.05.58,4.82v4.24h-10.61Z"/>
        <path d="M64.08,231.9c-.71,0-1.42-.11-2.15-.34-.72-.22-1.34-.55-1.86-.96-.58-.42-1.07-.9-1.47-1.45-.4-.55-.72-1.17-.94-1.88-.26-.71-.39-1.41-.39-2.12,0-.8.13-1.53.39-2.19.26-.66.58-1.26.96-1.81.42-.61.9-1.1,1.45-1.47.55-.37,1.17-.68,1.88-.94.71-.22,1.41-.34,2.12-.34s1.43.12,2.17.36c.74.24,1.35.54,1.83.89.51.42.96.88,1.35,1.4.39.51.72,1.16,1.01,1.93.22.74.34,1.46.34,2.17,0,.64-.11,1.35-.34,2.12-.23.77-.53,1.4-.92,1.88-.42.55-.91,1.04-1.47,1.47-.56.43-1.18.75-1.86.94-.32.1-.66.18-1.01.24-.35.06-.72.1-1.11.1Z"/>
        <path d="M79.26,231.42v-46.77h-8.92v-10.61h29.17v10.61h-8.92v46.77h-11.33Z"/>
        <path d="M100.5,231.42v-57.37h11.33v57.37h-11.33Z"/>
        <path d="M142.63,231.42h-24.11v-57.37h23.87v10.61h-12.54v10.94h11.57v10.61h-11.57v14.61h12.78v10.61Z"/>
        <path d="M178.67,188.99c0,2.86-.6,5.3-1.78,7.33-.55.96-1.21,1.82-2,2.56-.79.74-1.76,1.37-2.92,1.88-1.09.45-2.27.74-3.52.87v.77c1.16,0,2.33.37,3.52,1.11,1.12.74,2.01,1.72,2.65,2.94.16.32.3.64.41.96.11.32.22.64.31.96l5.74,23.05h-11.33l-6.7-24.25h-3.66v24.25h-11.33v-57.37h16.87c1.54,0,3.03.23,4.46.7,1.43.47,2.72,1.15,3.88,2.05,1.16.93,2.13,1.99,2.92,3.18.79,1.19,1.41,2.56,1.86,4.1.42,1.58.63,3.21.63,4.92ZM159.38,196.56h2.65c.61,0,1.2-.08,1.76-.24.56-.16,1.08-.42,1.57-.77.84-.67,1.43-1.64,1.78-2.89.13-.55.19-1.22.19-2.02,0-1.83-.47-3.29-1.4-4.36-.93-1.08-2.23-1.62-3.91-1.62h-2.65v11.91Z"/>
      </g>
      <g>
        <path d="M55.23,250.13c0,.63.08,1.23.24,1.82.16.59.41,1.14.75,1.67.3.46.67.87,1.12,1.22.45.35.94.61,1.47.77.56.19,1.14.28,1.74.28,1,0,1.88-.23,2.64-.69.75-.46,1.33-1.1,1.73-1.91.09-.2.17-.4.25-.62.07-.22.13-.45.19-.69h3.7c-.08.89-.29,1.71-.61,2.44-.32.73-.74,1.4-1.24,2.01-1.06,1.28-2.41,2.16-4.04,2.65-.82.25-1.68.37-2.58.37s-1.8-.14-2.71-.42-1.79-.74-2.65-1.37c-.75-.56-1.4-1.23-1.94-2.03-.55-.8-.96-1.65-1.23-2.55-.14-.46-.25-.94-.33-1.44-.08-.49-.12-1-.12-1.53,0-1.07.15-2.07.46-3,.3-.93.72-1.78,1.24-2.54.59-.83,1.27-1.53,2.05-2.09.78-.56,1.56-.97,2.35-1.24.45-.14.92-.26,1.4-.34.48-.08.98-.12,1.48-.12,1.77,0,3.37.47,4.81,1.4.69.45,1.3,1,1.82,1.63.52.63.94,1.31,1.25,2.03.31.74.5,1.54.59,2.41h-3.7c-.08-.46-.23-.9-.44-1.32-.21-.42-.46-.78-.73-1.09-.29-.31-.62-.58-.99-.81-.37-.23-.78-.41-1.22-.53-.46-.11-.94-.17-1.42-.17-.66,0-1.26.1-1.81.3-.55.2-1.01.45-1.4.75-.89.71-1.51,1.66-1.85,2.84-.09.3-.16.61-.2.93-.04.32-.06.66-.06,1Z"/>
        <path d="M82.11,245.7c0,.92-.19,1.7-.57,2.35-.18.31-.39.58-.64.82-.25.24-.56.44-.93.6-.35.14-.73.24-1.13.28v.25c.37,0,.75.12,1.13.35.36.24.64.55.85.94.05.1.1.21.13.31.04.1.07.21.1.31l1.84,7.38h-3.63l-2.14-7.76h-1.17v7.76h-3.63v-18.36h5.4c.49,0,.97.07,1.43.22.46.15.87.37,1.24.66.37.3.68.64.93,1.02.25.38.45.82.59,1.31.13.5.2,1.03.2,1.57ZM75.94,248.13h.85c.2,0,.38-.03.56-.08.18-.05.35-.13.5-.25.27-.22.46-.52.57-.93.04-.17.06-.39.06-.65,0-.59-.15-1.05-.45-1.4-.3-.34-.72-.52-1.25-.52h-.85v3.81Z"/>
        <path d="M93.85,259.28h-7.72v-18.36h7.64v3.39h-4.01v3.5h3.7v3.39h-3.7v4.68h4.09v3.39Z"/>
        <path d="M97.11,259.28l2.87-18.36h5.18l2.87,18.36h-3.63l-.54-4.21h-2.59l-.54,4.21h-3.63ZM101.71,251.68h1.73l-.62-5.76c-.02-.24-.04-.45-.05-.64-.01-.19-.02-.4-.03-.62-.01-.22-.02-.49-.02-.81h-.31v.66c-.01.08-.02.16-.02.23,0,.1,0,.21-.02.32-.01.11-.02.21-.02.32,0,.21-.02.39-.05.54l-.62,5.76Z"/>
        <path d="M114.15,259.28v-14.97h-2.85v-3.39h9.34v3.39h-2.85v14.97h-3.63Z"/>
        <path d="M123.89,259.28v-18.36h3.63v18.36h-3.63Z"/>
        <path d="M134.4,240.92l1.45,11.84c.02.11.04.27.06.46.02.2.04.4.05.61.02.21.03.39.04.55.02.29.04.58.05.88.01.3.02.59.03.88v.83h.31c0-.24,0-.44,0-.6,0-.16.01-.33.02-.49,0-.16.01-.37.02-.62,0-.27.01-.56.03-.86.02-.31.05-.6.08-.86.01-.13.02-.27.03-.4.01-.12.03-.25.05-.37l1.45-11.84h3.63l-2.87,18.36h-5.19l-2.87-18.36h3.63Z"/>
        <path d="M152.67,259.28h-7.72v-18.36h7.64v3.39h-4.01v3.5h3.7v3.39h-3.7v4.68h4.09v3.39Z"/>
      </g>
    </g>
  </g>
</svg>